<?xml version="1.0" encoding="UTF-8"?>
<svg xmlns="http://www.w3.org/2000/svg" version="1.1" viewBox="0 0 81 104">
  <defs>
    <style>
      .cls-1 {
        fill: #fff;
      }
    </style>
  </defs>
  <!-- Generator: Adobe Illustrator 28.6.0, SVG Export Plug-In . SVG Version: 1.2.0 Build 709)  -->
  <g>
    <g id="Calque_1">
      <g>
        <g>
          <path class="cls-1" d="M31,31.2c-1.1.3-7.7,2.5-12.9,5-5.3,2.5-11.8,7.3-11.8,7.3,0,.5.4.4.4.4,0,0,2.3-1.1,8.2-2.8,5.1-1.6,9.4-2.6,14-3.5,1.3-.2,1.7-.3,2-1.1.3-.8.8-2.3,1.3-4.1.5-1.8,0-1.6-1.1-1.3Z"/>
          <path class="cls-1" d="M77.8,26.1c-3.1,1.3-7.9,3.3-13.5,5.5,4.9-13.5,9.7-24,10.3-25.4.8-1.8.8-2.3-.6-1.8-1.9.7-5.6,2-6.5,2.3-1.3.4-1.2.6-1.8,2-.5,1.5-4.1,10.9-7.8,22.6-.3,1-.7,2.1-1,3.1-3.4,1.3-6.9,2.7-10.5,4,2.7-11.2,5.2-19.7,5.6-20.7.5-1.6-.4-1.6-1.2-1-.8.6-3,2.4-4.6,3.5-.3.2-.6.5-.8,1.3-.3.8-1.9,5.7-4.5,15.1-.4,1.3-.7,2.8-1.1,4.2-6.8,2.5-13.4,4.9-18.7,6.6-5.9,1.9-9,2.8-10.9,2.8-5.3,0-5.5-3.5-5.5-4.7,0-6.8,9.9-13.6,14.7-15.9,9.2-4.3,15.6-4.8,19.9-5.4,1.5-.2,2.1-.2,2.4-1.2,1.9-6.7,1.6-5.6,1.9-6.8.3-1.2-.3-1.5-1-1.5s-15.7,2.5-27.9,10.7C3.3,33.6.5,42.8.5,48.5s.3,7.3,7.6,7.3,7.9-.9,22.5-5.3c2.3-.7,4.7-1.4,7.3-2.2-1.8,6.9-3.3,13.3-3.7,14.6-.5,2.1.1,1.5,3.2,1,3.1-.5,3.2-.6,3.5-.8.3-.2.4-.7.9-3.7.8-4.5,1.8-9,2.8-13.3,3.3-1.1,6.6-2.2,9.8-3.2-2,7.2-3.5,13.2-4.1,15.3-.8,3.1-.8,3.1.1,2.8.9-.3,2.5-.9,3.5-1.2s1.4-.4,1.6-1c2.1-7.2.6-2.1,4.4-14.3.4-1.3.8-2.5,1.2-3.8,7.5-2.5,13.1-4.5,13.7-4.7,1.4-.5,1.8-.4,2-1,.2-.6,2.7-6.7,3.2-8.3.6-1.6,0-1.6-2.4-.5Z"/>
        </g>
        <g>
          <path class="cls-1" d="M7.1,67.7h6.6v1.4h-5v3.4h4.9v1.4h-4.9v4.6h5v1.4h-6.6v-12.2Z"/>
          <path class="cls-1" d="M23,70c-.5-.8-1-1.2-2-1.2s-2,.7-2,1.7.9,1.5,1.7,1.8l.9.3c1.7.7,3,1.6,3,3.7s-1.7,3.8-3.9,3.8-3.5-1.5-3.8-3.4l1.5-.3c0,1.3,1.1,2.3,2.4,2.3s2.3-1.1,2.3-2.4-1.1-1.9-2.1-2.3l-.8-.4c-1.4-.6-2.7-1.4-2.7-3.1s1.8-3.2,3.6-3.2,2.5.7,3.1,1.8l-1.2.7Z"/>
          <path class="cls-1" d="M29.7,80h-1.5v-12.2h1.8c3.8,0,4.9,1.3,4.9,3.5s-2,3.6-4.3,3.6h-.9v5.1ZM29.7,73.5h.5c1.6,0,3.2-.3,3.2-2.2s-1.8-2.1-3.3-2.1h-.4v4.4Z"/>
          <path class="cls-1" d="M38.6,76.9l-1.4,3.1h-1.6l5.8-12.7,5.8,12.7h-1.6l-1.4-3.1h-5.6ZM41.4,70.5l-2.2,4.9h4.3l-2.2-4.9Z"/>
          <path class="cls-1" d="M59.1,70.1c-.9-.8-2.1-1.2-3.2-1.2-2.7,0-4.8,2.3-4.8,5s2.1,5,4.8,5,2.4-.5,3.3-1.3v1.8c-.9.6-2.1.9-3.2.9-3.5,0-6.4-2.8-6.4-6.3s2.9-6.4,6.5-6.4,2.2.3,3.1.8v1.8Z"/>
          <path class="cls-1" d="M62.9,67.7h6.6v1.4h-5v3.4h4.9v1.4h-4.9v4.6h5v1.4h-6.6v-12.2Z"/>
          <path class="cls-1" d="M14.4,89.9v-4.9h1.5v12.2h-1.5v-5.9h-5.8v5.9h-1.5v-12.2h1.5v4.9h5.8Z"/>
          <path class="cls-1" d="M20.7,94.1l-1.4,3.1h-1.6l5.8-12.7,5.8,12.7h-1.6l-1.4-3.1h-5.6ZM23.5,87.8l-2.2,4.9h4.3l-2.2-4.9Z"/>
          <path class="cls-1" d="M31.1,97.2v-12.2h1.5c2.3,0,4.5.6,4.5,3.4s-.5,1.9-1.3,2.3h0c1.4.3,2.4,1.7,2.4,3.1,0,2.4-2.1,3.4-4.2,3.4M32.6,90.4h.4c1.4,0,2.6-.3,2.6-2s-1.2-2-2.6-2h-.4v4.1ZM32.6,95.8h1.2c1.4,0,2.9-.4,2.9-2.2s-1.8-2.1-3.1-2.1h-.9v4.2Z"/>
          <path class="cls-1" d="M42.2,97.2h-1.5v-12.2h1.5v12.2Z"/>
          <path class="cls-1" d="M48.6,97.2h-1.5v-10.8h-2.9v-1.4h7.3v1.4h-2.9v10.8Z"/>
          <path class="cls-1" d="M54,94.1l-1.4,3.1h-1.6l5.8-12.7,5.8,12.7h-1.6l-1.4-3.1h-5.6ZM56.8,87.8l-2.2,4.9h4.3l-2.2-4.9Z"/>
          <path class="cls-1" d="M66.5,97.2h-1.5v-10.8h-2.9v-1.4h7.3v1.4h-2.9v10.8Z"/>
        </g>
        <rect class="cls-1" x="58.1" y="54.6" width=".7" height="11.2"/>
        <polygon class="cls-1" points="58.8 22.8 58.1 22.8 58.1 1.3 18.2 1.3 18.2 22.2 17.5 22.2 17.5 .6 58.8 .6 58.8 22.8"/>
        <rect class="cls-1" x="17.5" y="57.4" width=".7" height="8.2"/>
        <polygon class="cls-1" points="58.8 103.3 17.5 103.3 17.5 98.2 18.2 98.2 18.2 102.6 58.1 102.6 58.1 98.1 58.8 98.1 58.8 103.3"/>
      </g>
    </g>
    <metadata>
      <sfw xmlns="http://ns.adobe.com/SaveForWeb/1.0/">
        <slices/>
        <sliceSourceBounds x="0.5" y="0.68" width="79.92" height="102.72" bottomLeftOrigin="true"/>
      </sfw>
    </metadata>
  </g>
</svg>